<svg width="28" height="28" viewBox="0 0 28 28" fill="none" xmlns="http://www.w3.org/2000/svg">
<rect width="28" height="28" rx="14" fill="#F0F3F4" fill-opacity="0.6"/>
<path d="M14.0001 20.5C13.9294 20.5 13.8587 20.4853 13.7927 20.4553C13.5747 20.356 8.44407 17.9767 7.6214 13.7394C7.3034 12.1 7.62274 10.5007 8.4754 9.46201C9.1654 8.62068 10.1574 8.17333 11.3447 8.16733C11.3507 8.16733 11.3567 8.16733 11.362 8.16733C12.7167 8.16733 13.5427 8.93868 13.9994 9.59535C14.4581 8.93602 15.2907 8.16133 16.654 8.16733C17.842 8.17333 18.8347 8.62068 19.5254 9.46201C20.3767 10.5 20.6954 12.0993 20.3767 13.74C19.5554 17.9773 14.424 20.3574 14.206 20.456C14.1414 20.4854 14.0707 20.5 14.0001 20.5ZM11.3614 9.16668C11.3574 9.16668 11.3541 9.16668 11.3501 9.16668C10.4581 9.17068 9.75143 9.48334 9.24876 10.096C8.58276 10.9073 8.34208 12.198 8.60341 13.5487C9.24008 16.8313 13.0621 18.9647 14.0001 19.4433C14.9381 18.9647 18.7601 16.8313 19.3961 13.5487C19.6587 12.1973 19.4181 10.9067 18.7534 10.096C18.2507 9.484 17.544 9.172 16.65 9.16733C16.646 9.16733 16.6421 9.16733 16.6387 9.16733C15.0574 9.16733 14.4968 10.752 14.4741 10.8194C14.4048 11.0214 14.214 11.1587 14.0007 11.1587C13.9994 11.1587 13.9987 11.1587 13.998 11.1587C13.784 11.158 13.5934 11.0213 13.5254 10.818C13.5034 10.7513 12.9421 9.16668 11.3614 9.16668Z" fill="#4B6166"/>
</svg>
