<svg width="16" height="16" viewBox="0 0 16 16" fill="none" xmlns="http://www.w3.org/2000/svg">
<path d="M7.99992 15.1666C4.04792 15.1666 0.833252 11.952 0.833252 7.99998C0.833252 4.04798 4.04792 0.833313 7.99992 0.833313C11.9519 0.833313 15.1666 4.04798 15.1666 7.99998C15.1666 11.952 11.9519 15.1666 7.99992 15.1666ZM7.99992 1.83331C4.59925 1.83331 1.83325 4.59931 1.83325 7.99998C1.83325 11.4006 4.59925 14.1666 7.99992 14.1666C11.4006 14.1666 14.1666 11.4006 14.1666 7.99998C14.1666 4.59931 11.4006 1.83331 7.99992 1.83331ZM8.49992 11V7.95262C8.49992 7.67662 8.27592 7.45262 7.99992 7.45262C7.72392 7.45262 7.49992 7.67662 7.49992 7.95262V11C7.49992 11.276 7.72392 11.5 7.99992 11.5C8.27592 11.5 8.49992 11.276 8.49992 11ZM8.67993 5.66665C8.67993 5.29865 8.38193 4.99998 8.01327 4.99998H8.00659C7.63859 4.99998 7.34318 5.29865 7.34318 5.66665C7.34318 6.03465 7.64527 6.33331 8.01327 6.33331C8.38127 6.33331 8.67993 6.03465 8.67993 5.66665Z" fill="#FEEFEA"/>
</svg>
