<svg width="16" height="14" viewBox="0 0 16 14" fill="none" xmlns="http://www.w3.org/2000/svg">
<path d="M10.3687 13.5H5.63208C4.16208 13.5 3.35205 12.6947 3.35205 11.2333C3.35205 9.63066 4.25876 7.75937 6.81543 7.75937H9.18538C11.7421 7.75937 12.6488 9.63066 12.6488 11.2333C12.6488 12.6947 11.8387 13.5 10.3687 13.5ZM6.81543 8.75937C4.52943 8.75937 4.35205 10.6527 4.35205 11.2333C4.35205 12.1333 4.72341 12.5 5.63208 12.5H10.3687C11.2774 12.5 11.6488 12.1327 11.6488 11.2333C11.6488 10.6527 11.4707 8.75937 9.18538 8.75937H6.81543ZM8.00545 6.84132C6.62479 6.84132 5.50138 5.718 5.50138 4.33733C5.50138 2.95666 6.62479 1.83334 8.00545 1.83334C9.38612 1.83334 10.5101 2.95666 10.5101 4.33733C10.5101 5.718 9.38612 6.84132 8.00545 6.84132ZM8.00545 2.83334C7.17612 2.83334 6.50138 3.508 6.50138 4.33733C6.50138 5.16666 7.17612 5.84132 8.00545 5.84132C8.83479 5.84132 9.51009 5.16666 9.51009 4.33733C9.51009 3.508 8.83479 2.83334 8.00545 2.83334ZM15.1667 7.43336C15.1667 6.11603 14.3501 4.78671 12.5268 4.78671H11.88C11.604 4.78671 11.38 5.01071 11.38 5.28671C11.38 5.56271 11.604 5.78671 11.88 5.78671H12.5268C14.0074 5.78671 14.1667 6.93803 14.1667 7.43336C14.1667 8.00936 13.9607 8.21331 13.38 8.21331H13.1401C12.8641 8.21331 12.6401 8.43731 12.6401 8.71331C12.6401 8.98931 12.8641 9.21331 13.1401 9.21331H13.38C14.5154 9.21331 15.1667 8.56469 15.1667 7.43336ZM12.0661 4.3567C12.9667 4.17537 13.6201 3.37137 13.6201 2.44671C13.6201 1.37337 12.7468 0.50001 11.6734 0.50001C11.1661 0.50001 10.6941 0.687989 10.3447 1.02866C10.1467 1.22132 10.1428 1.53801 10.3354 1.73601C10.5274 1.93401 10.8454 1.93804 11.0427 1.74537C11.2047 1.58737 11.4288 1.50066 11.6734 1.50066C12.1954 1.50066 12.6201 1.92536 12.6201 2.44736C12.6201 2.89802 12.3034 3.28937 11.8681 3.37737C11.5974 3.43204 11.4221 3.69598 11.4767 3.96664C11.5247 4.20398 11.7334 4.36801 11.9661 4.36801C11.9994 4.36668 12.0327 4.36337 12.0661 4.3567ZM3.35343 8.71331C3.35343 8.43731 3.12943 8.21331 2.85343 8.21331H2.61938C2.03872 8.21331 1.83276 8.00936 1.83276 7.43336C1.83276 6.93803 1.99207 5.78671 3.47274 5.78671H4.13273C4.40873 5.78671 4.63273 5.56271 4.63273 5.28671C4.63273 5.01071 4.40873 4.78671 4.13273 4.78671H3.47274C1.52407 4.78671 0.832764 6.21269 0.832764 7.43336C0.832764 8.56469 1.48405 9.21331 2.61938 9.21331H2.85343C3.12943 9.21331 3.35343 8.98931 3.35343 8.71331ZM4.53744 3.96534C4.5921 3.69468 4.41674 3.43065 4.14608 3.37599C3.70608 3.28732 3.38672 2.89664 3.38672 2.44597C3.38672 1.92397 3.81475 1.49936 4.34009 1.49936C4.58009 1.49936 4.80604 1.58803 4.97738 1.74936C5.17804 1.93936 5.49408 1.93001 5.68408 1.72934C5.87408 1.52867 5.86473 1.21205 5.66406 1.02272C5.3074 0.685382 4.83741 0.499359 4.34074 0.499359C3.26407 0.499359 2.38745 1.37264 2.38745 2.44597C2.38745 3.36997 3.04406 4.17338 3.94873 4.35605C3.98206 4.36272 4.01543 4.36598 4.0481 4.36598C4.28076 4.36664 4.48877 4.20268 4.53744 3.96534Z" fill="#293BDC"/>
</svg>
