<svg version="1.2" xmlns="http://www.w3.org/2000/svg" viewBox="0 0 1280 720" width="1280" height="720">
	<title>New Project</title>
	<style>
		.s0 { fill: #ffffff } 
	</style>
	<path id="Travel.lk" class="s0" aria-label="Travel.lk"  d="m121.5 308.8l46.5-0.1v146.3h35v-146.3h46.5v-28.2h-128zm188.5 77.2c0-26.7 12.5-34.7 33.2-34.7h9.3v-36.8c-19.3 0-33.8 9.3-42.5 23.5v-21.5h-35v138.5h35zm57-0.7c0 43.2 28 72 63 72 22 0 37.7-10.5 46-22.5v20.2h35.2v-138.5h-35.2v19.8c-8.3-11.5-23.5-22-45.8-22-35.2 0-63.2 27.7-63.2 71zm109 0.5c0 26.2-17.5 40.7-36.8 40.7-18.7 0-36.5-15-36.5-41.2 0-26.3 17.8-40.3 36.5-40.3 19.3 0 36.8 14.5 36.8 40.8zm54.7-69.3l51 138.5h42.5l51.3-138.5h-37.3l-35 106.3-35-106.3zm224 26.5c18 0 32.5 11.5 33 29.8h-65.7c2.7-19 16-29.8 32.7-29.8zm65.8 68.5h-37.8c-4.5 9.3-12.7 16.8-27.7 16.8-17.5 0-31.5-11.5-33.3-32h101.3c0.7-4.5 1-9 1-13.5 0-41.3-28.3-68.5-68.3-68.5-41 0-69.5 27.7-69.5 71.5 0 43.5 29.3 71.5 69.5 71.5 34.3 0 57.3-20.3 64.8-45.8zm29 43.5h35v-185h-35zm106.2-18.7c0-11.5-9-20.5-21.2-20.5-12.8 0-21.8 9-21.8 20.5 0 11.5 9 20.5 21.8 20.5 12.2 0 21.2-9 21.2-20.5zm28.3 18.7h35v-185h-35zm69.5 0h35v-59l47 59h45.5l-61.5-69 61-69.5h-45.5l-46.5 58.8v-105.3h-35z"/>
</svg>